<svg width="426" height="200" viewBox="0 0 426 200" fill="none" xmlns="http://www.w3.org/2000/svg">
<g clip-path="url(#clip0_14_84)">
<rect width="426" height="200" rx="16" fill="url(#paint0_radial_14_84)"/>
<g clip-path="url(#clip1_14_84)">
<path d="M313.814 184.188L310.525 182.255L308.604 177.288L312.333 178.547L314.314 175.084L315.463 182.153L313.814 184.188Z" fill="#EADAA7"/>
<path d="M317.338 199.106L311.9 178.387L312.625 178.169L318.063 198.887L317.338 199.106Z" fill="#9E7766"/>
<path d="M286.065 186.286L281.732 184.885L278.26 179.755L282.946 180.298L284.422 175.944L287.503 183.615L286.065 186.286Z" fill="#EADAA7"/>
<path d="M283.195 179.804L282.398 180.218L293.857 202.216L294.654 201.802L283.195 179.804Z" fill="#9E7766"/>
<path d="M327.061 194.078L229.094 210.159L377.692 210.838L327.061 194.078Z" fill="#FFEBAA"/>
<path fill-rule="evenodd" clip-rule="evenodd" d="M426.103 85.9299C426.471 81.7681 425.497 77.3882 422.873 74.1347C418.475 68.6824 410.713 67.506 403.708 67.2788C396.298 67.0385 388.658 67.4627 381.907 70.5244C378.916 71.7604 376.313 73.7796 374.374 76.3694C372.825 78.782 371.865 81.5239 371.57 84.3746C370.968 88.7958 371.813 94.1498 375.796 96.169C379.333 97.9619 383.289 96.2747 387.097 94.6501C387.986 94.271 388.867 93.8952 389.733 93.568C389.907 93.502 390.085 93.4357 390.264 93.3686L390.265 93.3682C393.299 92.2322 396.908 90.8808 397.16 87.7376C397.197 87.2701 397.149 86.7903 397.101 86.3134V86.3132V86.313V86.3127V86.3125V86.3123C397.019 85.4982 396.938 84.6926 397.285 83.9707C397.726 83.2385 398.383 82.6604 399.166 82.3151C403.633 79.8576 408.577 78.3881 413.662 78.0062C414.642 77.8735 415.639 77.9641 416.578 78.2714C418.37 78.9859 419.283 80.997 419.615 82.8959C420.111 85.7726 419.686 88.7323 418.4 91.3533C419.47 91.5003 420.107 92.7435 419.964 93.8131C419.73 94.8733 419.189 95.8413 418.408 96.5962C415.923 99.4056 412.957 101.75 409.649 103.52C409.355 103.677 409.053 103.835 408.748 103.996L408.746 103.997C405.401 105.754 401.617 107.741 401.367 111.394C404.898 109.363 408.823 108.111 412.878 107.72C413.772 107.634 414.825 107.659 415.364 108.375C416.002 109.223 415.492 110.432 414.909 111.318C410.904 117.409 404.42 120.882 397.875 124.388C393.617 126.669 389.334 128.963 385.691 132.001C377.697 138.666 375.612 149.092 376.779 159.422C376.101 168.578 380.515 178.262 388.976 181.621L376.604 181.954C381.124 182.07 384.62 186.803 384.344 191.312C384.069 195.822 380.793 199.739 376.815 201.885C372.836 204.032 368.23 204.681 363.72 205.006C359.019 205.344 354.301 205.369 349.597 205.082L349.437 205.072C347.777 204.97 346.057 204.864 344.528 205.504C344.01 205.722 343.541 206.041 343.15 206.443C342.758 206.845 342.451 207.322 342.248 207.845H465.748C465.684 207.485 465.481 207.165 465.183 206.952C473.785 206.81 482.508 205.51 490.269 201.8C498.03 198.091 504.773 191.765 507.74 183.697C509.236 179.628 509.679 174.864 507.506 171.111C505.334 167.358 499.913 165.39 496.408 167.946C501.952 162.057 506.739 154.811 507.043 146.732C507.348 138.654 501.709 129.986 493.643 129.334C489.818 129.024 486.091 130.463 482.524 131.876C485.338 127.203 488.101 120.999 484.729 116.71C481.186 112.205 474.1 113.822 468.757 115.904C463.031 118.135 457.238 120.467 452.404 124.26C447.571 128.052 443.745 133.563 443.381 139.692C443.01 145.933 446.172 151.777 449.237 157.227L440.49 156.592C439.502 148.153 438.157 138.974 431.961 133.152C423.823 125.505 410.621 126.891 400.425 131.456C390.428 135.932 381.194 143.544 377.833 153.961C377.814 154.021 377.795 154.081 377.776 154.142C378.556 148.549 381.012 143.044 384.554 138.628C391.401 130.094 401.519 124.885 411.63 120.693C413.18 120.05 415.748 120.058 415.699 121.733C417.397 120.159 418.891 118.38 420.148 116.436C421.337 114.781 422.072 112.844 422.28 110.817C422.381 108.793 421.488 106.619 419.695 105.67C419.16 105.407 418.571 105.269 417.975 105.269C417.378 105.268 416.789 105.404 416.253 105.667C418.457 103.216 420.398 100.541 422.044 97.6857C424.23 94.1053 425.615 90.0951 426.103 85.9299ZM187.565 183.756C187.455 183.504 187.396 183.232 187.392 182.957C187.388 182.682 187.44 182.409 187.543 182.154C184.962 184.605 181.209 185.666 177.641 186.328C173.457 187.104 169.215 187.535 164.959 187.614C162.586 187.658 160.146 187.58 157.955 186.668C155.764 185.756 153.851 183.842 153.569 181.487C153.203 178.426 155.441 176.013 157.641 173.641C158.314 172.916 158.983 172.194 159.573 171.46C163.171 166.98 164.105 160.992 164.913 155.305C165.623 150.311 166.194 144.729 163.181 140.681C160.733 137.393 156.427 135.977 152.328 135.801C148.927 135.68 145.538 136.265 142.375 137.52C139.213 138.775 136.345 140.673 133.955 143.092C133.92 142.878 133.86 142.669 133.774 142.469C133.551 141.963 133.171 141.557 132.789 141.15C132.478 140.817 132.165 140.483 131.937 140.094C131.192 138.823 131.483 137.355 131.781 135.857C131.973 134.884 132.169 133.898 132.085 132.946C131.9 130.848 130.314 129.073 128.434 128.119C126.501 127.264 124.42 126.794 122.306 126.738C117.676 126.377 112.753 126.5 108.77 128.886C103.025 132.327 100.77 139.467 99.7448 146.08C98.9621 151.128 98.628 156.309 99.5869 161.327C100.546 166.344 102.892 171.214 106.781 174.53C110.171 177.421 114.397 178.915 118.641 180.415L118.641 180.415C121.968 181.592 125.307 182.772 128.263 184.632C130.025 178.351 133.586 172.72 138.508 168.433C139.183 167.744 140.046 167.267 140.99 167.061C142.968 166.807 144.53 168.773 145.141 170.669C146.162 173.834 145.78 177.261 145.321 180.554L145.267 180.944C144.823 184.114 144.369 187.356 145.099 190.466C145.859 193.703 148.248 196.807 151.537 197.314C155.209 197.881 158.116 195.319 161.071 192.714C163.752 190.351 166.473 187.953 169.84 187.823C172.965 187.702 175.652 189.582 178.276 191.417L178.276 191.417L178.276 191.418L178.276 191.418L178.276 191.418L178.276 191.418C178.862 191.827 179.444 192.235 180.028 192.617C183.226 194.714 187.929 195.991 190.548 193.206C189.161 190.676 188.738 187.73 189.358 184.912C189.688 184.94 190.02 184.882 190.321 184.745C190.375 183.292 190.624 181.853 191.062 180.467C190.249 181.843 189.672 183.345 189.358 184.912C188.984 184.894 188.621 184.777 188.306 184.574C187.992 184.371 187.736 184.089 187.565 183.756ZM188.578 181.01C188.097 181.243 187.726 181.653 187.543 182.154C187.917 181.8 188.263 181.417 188.578 181.01ZM228.033 193.164L228.034 193.164C228.214 193.252 228.394 193.34 228.583 193.416L232.958 200.638C230.754 200.044 229.756 197.565 228.938 195.435C228.642 194.664 228.323 193.902 227.994 193.145L228.033 193.164ZM204.086 169.626C197.975 169.565 192.907 174.563 191.062 180.467C191.382 179.926 191.739 179.408 192.13 178.917C195.306 174.937 200.35 172.746 205.416 172.204C206.899 172.003 208.405 172.058 209.869 172.366C214.57 173.501 217.414 178.166 219.571 182.49L219.571 182.49L219.571 182.491C221.631 186.619 223.895 191.156 227.994 193.145C225.416 187.222 221.854 181.777 217.459 177.041C213.89 173.201 209.331 169.678 204.086 169.626Z" fill="url(#paint1_linear_14_84)"/>
<path d="M332.545 33.2568C331.24 35.8746 331.179 40.2325 331.904 41.7563C333.212 44.5051 341.565 45.5752 342.854 42.4305C344.142 39.2858 344.724 34.3897 343.527 33.47C342.33 32.5501 333.643 31.0525 332.545 33.2568Z" fill="#E79B69"/>
<path d="M358.515 42.6384C356.693 43.3789 356.189 40.1246 356.205 38.7403C356.222 37.2595 358.568 35.323 360.006 35.4956C361.445 35.6681 359.965 42.0494 358.515 42.6384Z" fill="#E79B69"/>
<path d="M347.873 37.1692C345.925 37.4431 346.232 34.1644 346.585 32.8257C346.963 31.3938 349.711 30.0877 351.064 30.6057C352.417 31.1238 349.423 36.9513 347.873 37.1692Z" fill="#E79B69"/>
<path d="M339.328 167.739L338.373 168.007L339.425 169.896C339.425 169.896 351.546 166.861 351.636 152.018L349.464 151.35C347.718 158.396 345.119 164.614 339.328 167.739Z" fill="#915431"/>
<path d="M330.799 65.2449C330.073 63.0404 328.298 61.6437 326.833 62.1251C325.368 62.6064 324.769 64.7835 325.495 66.988C326.22 69.1923 327.996 70.5891 329.461 70.1078C330.926 69.6263 331.525 67.4492 330.799 65.2449Z" fill="#EDB984"/>
<path d="M346.591 91.5693C338.326 87.5155 328.152 70.0295 327.968 68.0445C327.785 66.0594 334.022 59.0772 336.396 59.0279C338.77 58.9788 356.009 76.3846 359.498 81.3813C362.986 86.3782 352.832 94.6302 346.591 91.5693Z" fill="#E79B69"/>
<path d="M327.968 68.0445C328.137 69.8689 336.745 84.7806 344.554 90.3295C339.666 76.9235 326.997 62.3622 327.968 68.0445Z" fill="#EDB984"/>
<path d="M332.577 42.389C327.508 53.595 325.875 57.5964 326.652 63.1452C327.37 68.2678 336.169 74.4514 339.82 64.5613C342.345 57.7211 341.958 48.8916 341.463 42.9558C341.256 40.4797 333.394 40.5827 332.577 42.389Z" fill="#E79B69"/>
<path d="M332.577 42.389C327.508 53.595 325.186 57.9269 325.963 63.4756C326.278 65.7239 328.283 68.1122 330.742 69.2491C328.062 57.7401 337.931 44.6543 337.421 41.074C335.275 40.9842 332.997 41.461 332.577 42.389Z" fill="#EDB984"/>
<path d="M385.288 34.9256L325.81 35.3324C324.095 35.1735 323.647 40.0011 325.362 40.1601L385.63 36.4155L385.288 34.9256Z" fill="#665648"/>
<path d="M436.738 162.079C438.45 165.614 444.17 176.326 444.031 180.639C442.114 182.851 438.096 171.054 433.218 167.947C422.668 161.225 436.738 162.079 436.738 162.079Z" fill="#EDB984"/>
<path d="M433.281 164.982C417.901 153.844 415.784 141.226 404.428 139.377C392.27 137.397 386.919 139.228 386.919 139.228C386.919 139.228 389.927 147.185 399.575 151.132C409.758 155.297 433.06 166.49 433.06 166.49L433.281 164.982Z" fill="#E79B69"/>
<path d="M360.784 110.285C353.073 109.592 334.816 107.794 327.284 107.049C326.95 107.016 326.613 107.072 326.308 107.212C326.003 107.352 325.74 107.57 325.547 107.844C325.354 108.119 325.238 108.44 325.21 108.774C325.181 109.108 325.243 109.443 325.387 109.746L330.286 120.04C339.413 123.394 365.905 134 373.681 125.171C381.456 116.341 370.62 111.168 360.784 110.285Z" fill="#EDB984"/>
<path d="M360.783 110.285C360.017 110.216 359.142 110.136 358.188 110.047C358.211 110.172 358.224 110.299 358.226 110.426C358.277 114.122 353.738 117.368 333.472 111.325C330.012 110.293 331.579 117.155 328.659 116.622L330.286 120.04C339.413 123.394 365.905 134 373.681 125.171C381.456 116.341 370.62 111.168 360.783 110.285Z" fill="#E79B69"/>
<path d="M335.801 113.978C335.801 113.978 338.388 119.048 340.78 123.82C346.635 125.784 353.515 127.745 359.631 128.382C350.887 125.02 343.059 120.012 335.801 113.978Z" fill="#D27558"/>
<path d="M370.833 128.48C378.727 133.364 388.402 145.231 394.954 148.654L405.818 140C395.259 127.874 389.675 106.092 378.149 108.484C366.624 110.875 362.437 123.286 370.833 128.48Z" fill="#EDB984"/>
<path d="M386.979 126.438C392.339 134.37 395.6 142.304 396.106 147.736L405.818 140C395.259 127.874 389.675 106.092 378.149 108.484C376.036 108.911 374.026 109.748 372.234 110.947C376.792 113.834 382.199 119.363 386.979 126.438Z" fill="#E79B69"/>
<path d="M384.23 108.334C382.426 104.303 380.163 100.494 377.486 96.9805C377.486 96.9805 377.961 84.1537 371.486 77.7313C365.011 71.3087 355.231 74.4196 351.272 76.6784C347.312 78.9373 347.565 90.4713 350.458 94.5854C353.35 98.6994 357.582 105.498 358.254 110.295C358.927 115.092 372.497 112.933 372.497 112.933L384.23 108.334Z" fill="#EDB984"/>
<path d="M359.411 98.8733C364.509 99.942 370.756 106.473 373.975 112.354L384.23 108.334C382.426 104.303 380.163 100.494 377.486 96.9805C377.486 96.9805 377.961 84.1537 371.486 77.7313C365.011 71.3087 355.231 74.4195 351.271 76.6784C347.312 78.9373 347.565 90.4713 350.458 94.5854C351.72 96.3805 353.237 98.6869 354.602 101.115C355.666 100.071 357.206 98.4113 359.411 98.8733Z" fill="#E79B69"/>
<path d="M368.354 102.235C370.211 99.927 374.226 98.5328 378.039 97.6975C377.687 97.2242 377.486 96.9805 377.486 96.9805C377.486 96.9805 377.506 96.4076 377.479 95.4509C375.074 97.2122 370.594 97.112 364.606 96.7654C367.777 97.316 369.38 98.9053 368.354 102.235Z" fill="#D27558"/>
<path d="M372.012 129.216C369.968 130.673 366.289 129.259 365.339 128.538C362.464 126.357 354.96 111.477 356.719 109.028L357.755 108.512C357.755 108.512 359.977 111.951 365.986 112.161C372.143 112.376 383.532 107.335 383.532 107.335C384.639 106.625 386.486 109.357 385.371 110.064C376.84 113.304 370.674 122.142 372.012 129.216Z" fill="#665648"/>
<path d="M383.533 107.335C379.983 108.871 376.33 110.157 372.601 111.184C372.896 114.145 372.842 118.801 371.026 121.866C369.327 124.732 368 126.939 363.763 126.759C364.207 127.419 364.737 128.017 365.339 128.538C366.289 129.259 369.968 130.673 372.012 129.216C370.674 122.142 376.84 113.304 385.371 110.064C386.486 109.357 384.64 106.625 383.533 107.335Z" fill="#4C4138"/>
<path d="M363.901 92.9412C363.972 93.3562 363.955 93.7815 363.85 94.1893C363.745 94.5971 363.555 94.9782 363.293 95.3077C363.031 95.6372 362.702 95.9076 362.327 96.1015C361.953 96.2953 361.542 96.408 361.122 96.4324C351.877 96.9728 350.7 97.201 349.224 96.0195C347.575 94.6998 346.007 79.7902 350.576 77.2114C355.144 74.6325 356.549 84.6375 358.655 86.5416C360.66 88.4512 362.423 90.6006 363.901 92.9412Z" fill="#EDB984"/>
<path d="M349.898 95.2329C349.74 94.8356 349.426 94.4906 349.198 94.4625C348.969 94.4345 348.911 94.7338 349.069 95.131C349.227 95.5284 349.54 95.8732 349.769 95.9014C349.998 95.9295 350.055 95.6302 349.898 95.2329Z" fill="#E79B69"/>
<path d="M350.3 72.8814C347.286 81.4956 347.315 85.8837 349.504 86.7782C351.694 87.6726 360.273 76.8817 361.943 75.9229C363.613 74.9643 350.3 72.8814 350.3 72.8814Z" fill="#E79B69"/>
<path d="M350.18 84.0848C348.771 80.4776 344.143 75.2568 344.143 75.2568L349.299 69.7098L359.326 74.0582C355.66 75.9832 351.784 79.437 350.18 84.0848Z" fill="#D27558"/>
<path d="M353.559 72.3439C354.106 71.6415 353.514 70.4938 352.804 69.9562C352.644 69.8507 352.49 69.7349 352.345 69.6094C352.141 69.3741 351.985 69.1007 351.886 68.8049C351.645 68.1161 351.236 67.4982 350.695 67.0071C350.421 66.767 350.081 66.614 349.719 66.5675C349.357 66.5209 348.99 66.583 348.664 66.7458C348.554 66.8282 348.432 66.893 348.302 66.9378C348.184 66.9579 348.063 66.9517 347.947 66.9197C347.333 66.7323 346.71 66.5764 346.08 66.4524C344.982 66.4064 343.9 66.7291 343.007 67.3689C342.402 67.7186 341.878 68.1915 341.467 68.757C341.265 69.0411 341.126 69.366 341.062 69.709C340.998 70.052 341.009 70.4048 341.096 70.7429C341.21 71.058 341.386 71.347 341.614 71.5925C341.842 71.838 342.117 72.0351 342.423 72.1718C343.036 72.4417 343.687 72.6166 344.352 72.6904C344.424 72.6961 344.494 72.7175 344.556 72.7531C344.627 72.8153 344.685 72.8908 344.727 72.9753C344.847 73.1288 345.008 73.2456 345.192 73.3124C345.376 73.3793 345.574 73.3936 345.765 73.3536C346.146 73.268 346.509 73.1137 346.834 72.8983C346.917 72.8405 347.015 72.8056 347.116 72.797C347.222 72.8121 347.326 72.8433 347.423 72.8895C347.619 72.9165 347.819 72.9023 348.009 72.8477C348.2 72.7931 348.377 72.6993 348.529 72.5724C349.179 72.1822 349.873 71.8706 350.597 71.6442C350.698 71.6021 350.81 71.5906 350.917 71.6113C351.126 71.6726 351.191 71.9268 351.271 72.1289C351.609 72.9807 353.081 72.9573 353.559 72.3439Z" fill="#70464D"/>
<path d="M336.4 73.9071C332.844 75.0265 329.217 73.1342 329.081 72.3708C328.946 71.6073 345.748 67.4764 345.748 67.4764L336.4 73.9071Z" fill="#4F4239"/>
<path d="M334.616 69.7866C335.925 74.794 341.958 81.2768 342.846 81.7513C344.861 81.0048 349.041 76.2021 349.245 74.7942C349.448 73.3863 343.92 65.8349 343.92 65.8349L334.616 69.7866Z" fill="#BFB6AC"/>
<path d="M346.97 76.8697C345.654 76.0528 344.225 75.4326 342.729 75.0287C340.88 74.4854 338.942 74.3073 337.025 74.5044C339.063 77.783 341.888 80.7304 342.445 81.0283C343.638 80.5864 345.674 78.5572 346.97 76.8697Z" fill="#D1C8BF"/>
<path d="M350.01 63.7692L350.186 63.7138C344.173 51.3376 335.427 52.5946 335.427 52.5946C334.141 53.3813 333.119 54.5339 332.493 55.9045C336.399 55.6108 342.811 56.634 350.01 63.7692Z" fill="#E2D6CC"/>
<path d="M337.94 52.7328C337.113 52.5653 336.267 52.5188 335.427 52.5946C334.141 53.3813 333.119 54.5338 332.493 55.9045C333.434 55.8356 334.38 55.8488 335.318 55.9438C336.478 55.1423 337.387 54.029 337.94 52.7328Z" fill="#EDE1D9"/>
<path d="M337.117 56.0849C333.56 58.2102 332.676 63.5892 334.341 70.5811L349.873 65.695C344.676 54.9984 337.117 56.0849 337.117 56.0849Z" fill="#E2D6CC"/>
<path d="M340.38 65.5559C340.163 66.7542 339.794 67.9203 339.284 69.0261L349.873 65.6951C345.294 56.2722 338.886 55.9933 337.424 56.0606C339.898 56.9648 341.21 61.0415 340.38 65.5559Z" fill="#D1C8BF"/>
<path d="M337.681 68.2004C343.207 66.7245 348.595 65.73 348.595 65.73L340.07 68.9094L337.681 68.2004Z" fill="#E2D6CC"/>
<path d="M346.727 67.7893C349.525 72.5294 353.193 73.413 353.193 73.413L356.989 69.3355C353.238 68.8838 351.767 67.873 350.368 66.6882L346.727 67.7893Z" fill="#BFB6AC"/>
<path d="M349.05 67.2658L343.024 68.9973C344.264 71.5727 346.101 73.3295 349.556 73.4554C349.556 73.4554 351.911 71.305 349.05 67.2658Z" fill="#9B9187"/>
<path d="M347.567 70.663C348.547 70.6872 349.52 70.8363 350.462 71.1067C350.421 69.7073 349.925 68.3592 349.05 67.2658L343.024 68.9973C343.363 69.7196 343.787 70.3983 344.289 71.0188C345.358 70.7381 346.463 70.6182 347.567 70.663Z" fill="#756D65"/>
<path d="M329.081 72.3708C335.377 72.6748 350.716 68.6487 355.471 64.963C355.07 63.7555 345.847 66.4617 343.261 67.3548C338.959 68.8399 328.607 71.2202 329.081 72.3708Z" fill="#D1C8BF"/>
<path d="M354.636 64.6612C349.607 68.0718 336.184 71.632 329.678 71.6995C329.231 71.9508 329.002 72.1783 329.081 72.3708C335.253 73.1059 350.716 68.6486 355.471 64.963C355.405 64.7663 355.103 64.6749 354.636 64.6612Z" fill="#665648"/>
<path d="M357.883 108.67C356.395 105.549 352.06 105.102 351.014 101.709C350.724 100.454 350.705 99.1511 350.956 97.8876C351.12 96.641 351.35 95.4039 351.644 94.1815C352.248 91.7364 353.028 89.338 353.977 87.0049C355.039 84.3379 356.248 81.738 357.46 79.1421C357.63 78.7792 357.006 78.9149 356.829 79.2933C354.336 84.6355 352.411 88.951 351.224 93.4896C350.611 95.8362 349.966 98.5017 350.174 100.942C350.341 102.886 351.521 104.184 352.985 105.225C354.526 106.32 356.382 107.218 357.254 109.046C357.513 109.59 358.102 109.13 357.883 108.67Z" fill="#665648"/>
<path d="M348.741 35.4686C345.111 46.7986 343.349 51.2061 344.816 56.5642C346.17 61.5107 356.326 66.4979 358.712 56.5616C360.363 49.6893 358.873 41.0982 357.637 35.3405C357.121 32.9388 349.326 33.6422 348.741 35.4686Z" fill="#EDB984"/>
<path d="M357.637 35.3405C357.394 34.2079 355.532 33.7664 353.571 33.807C354.853 36.622 355.408 41.0732 354.877 45.9834C354.005 54.0445 350.54 60.2817 347.138 59.9145C347.112 59.9117 347.087 59.9051 347.062 59.9014C350.571 63.0375 356.895 64.1308 358.713 56.5615C360.363 49.6893 358.873 41.0982 357.637 35.3405Z" fill="#E79B69"/>
<path d="M358.655 86.5416C351.717 80.4941 345.71 60.9113 346.046 58.9462C346.381 56.9811 354.211 51.8435 356.518 52.408C358.824 52.9726 369.357 73.4914 371.437 79.2182C373.516 84.945 363.894 91.1077 358.655 86.5416Z" fill="#EDB984"/>
<path d="M373.061 79.9601C370.982 74.2333 358.983 52.94 356.677 52.3755C355.738 52.1459 354.404 51.7144 353.379 52.8655C352.209 55.4266 357.082 61.7076 359.071 67.5994C362.205 76.8812 362.496 85.3033 359.904 87.3849C365.479 90.3022 374.988 85.2656 373.061 79.9601Z" fill="#E79B69"/>
<path d="M349.22 57.2979C348.601 55.0614 346.894 53.5814 345.408 53.9922C343.922 54.4031 343.219 56.5493 343.839 58.7858C344.458 61.0223 346.165 62.5023 347.651 62.0914C349.137 61.6805 349.84 59.5345 349.22 57.2979Z" fill="#EDB984"/>
<path d="M339.088 116.787C334.049 111.424 330.106 108.677 327.777 107.343C327.496 107.192 327.181 107.113 326.861 107.113C326.542 107.112 326.227 107.191 325.945 107.342C325.663 107.493 325.423 107.711 325.247 107.977C325.07 108.243 324.962 108.549 324.932 108.867C324.397 113.917 325.481 119.005 328.03 123.399C333.463 132.855 344.873 155.838 344.873 155.838L345.976 154.75C340.757 136.545 346.871 125.071 339.088 116.787Z" fill="#EDB984"/>
<path d="M339.869 117.002C337.206 114.286 334.305 111.815 331.2 109.616C333.544 113.813 335.512 118.208 337.083 122.75C340.275 131.763 343.885 147.119 344.353 154.792C344.687 155.463 344.873 155.838 344.873 155.838L345.976 154.75C340.757 136.545 347.653 125.285 339.869 117.002Z" fill="#E79B69"/>
<path d="M350.237 153.09C348.831 156.757 347.363 165.43 339.329 167.739C337.864 164.755 346.597 164.35 343.153 153.625C339.454 142.109 350.237 153.09 350.237 153.09Z" fill="#EDB984"/>
<path d="M341.937 151.01L342.379 153.853C347.661 155.573 349.74 157.006 349.74 157.006L350.276 155.073C350.276 155.073 343.477 151.347 341.937 151.01Z" fill="#915431"/>
<path d="M343.309 160.141C343.479 159.113 343.502 158.066 343.377 157.032L348.583 159.743L347.363 161.652L343.309 160.141Z" fill="#915431"/>
<path d="M342.663 166.624L340.522 164.363L341.92 162.819L344.966 165.011L342.663 166.624Z" fill="#915431"/>
<path d="M396.012 144.953C393.69 143.242 391.334 142.672 390.557 143.585C389.752 144.531 390.84 146.818 393.195 148.818C395.779 151.012 399.45 151.357 400.211 150.092C400.942 148.879 398.543 146.82 396.012 144.953Z" fill="#EDB984"/>
<path d="M362.701 109.288C362.497 108.831 362.167 108.534 361.964 108.625C361.761 108.715 361.761 109.159 361.965 109.616C362.168 110.073 362.498 110.37 362.701 110.279C362.905 110.189 362.905 109.745 362.701 109.288Z" fill="#E79B69"/>
<path d="M363.877 115.517C370.668 116.14 378.057 111.646 378.057 111.646L377.163 113.761C372.89 115.856 368.459 116.988 363.877 115.517Z" fill="#4C4138"/>
<path d="M362.549 94.4286C362.468 94.0625 361.961 93.864 361.418 93.9853C360.875 94.1065 360.501 94.5016 360.583 94.8678C360.665 95.234 361.172 95.4325 361.715 95.3111C362.258 95.1899 362.631 94.7948 362.549 94.4286Z" fill="#E79B69"/>
<path d="M353.572 97.1442C354.219 95.6824 353.497 92.8099 353.497 92.8099C353.497 92.8099 355.385 96.4017 356.937 96.8902L355.413 98.1154L353.572 97.1442Z" fill="#E79B69"/>
<path d="M336.134 72.7998L336.752 73.8194C341.335 79.4472 342.876 76.8845 343.723 72.4539L342.688 71.0955L336.134 72.7998Z" fill="#756D65"/>
<path d="M348.739 31.25C347.497 33.7531 346.975 37.2341 347.745 38.5585C349.135 40.9475 358.602 42.5587 358.545 39.3409C358.48 35.6942 360.664 32.4862 359.436 31.7546C358.207 31.023 349.785 29.1424 348.739 31.25Z" fill="#EDB984"/>
<path d="M359.436 31.7546C358.516 31.3502 357.552 31.0555 356.563 30.8766C357.155 31.833 357.506 32.9177 357.588 34.0388C357.853 37.5368 355.565 40.5637 352.464 40.8544C355.405 41.4475 357.916 41.5945 358.845 39.9744C360.63 36.8621 360.665 32.4862 359.436 31.7546Z" fill="#E79B69"/>
<path d="M335.225 32.3225L333.836 32.411C333.611 32.4174 333.396 32.5066 333.232 32.6615C333.069 32.8164 332.968 33.0261 332.95 33.2504L332.764 36.3899C332.763 36.5243 332.788 36.6578 332.838 36.7824C332.889 36.9071 332.964 37.0204 333.058 37.1159C333.153 37.2113 333.266 37.2869 333.391 37.3382C333.515 37.3896 333.648 37.4157 333.783 37.4149L335.199 37.4443C335.441 37.4589 335.679 37.378 335.862 37.2189C336.044 37.0597 336.157 36.8352 336.175 36.5938L336.333 33.3365C336.333 33.1953 336.304 33.0557 336.247 32.9265C336.19 32.7973 336.106 32.6813 336.002 32.586C335.898 32.4906 335.775 32.418 335.641 32.3726C335.507 32.3272 335.365 32.3102 335.225 32.3225Z" fill="#EDB984"/>
<path d="M339.116 32.2074L337.727 32.296C337.502 32.3025 337.287 32.3917 337.123 32.5466C336.96 32.7014 336.859 32.9111 336.841 33.1354L336.656 36.2749C336.654 36.4093 336.679 36.5428 336.729 36.6674C336.78 36.7921 336.855 36.9054 336.949 37.0009C337.044 37.0963 337.157 37.1719 337.282 37.2233C337.406 37.2746 337.539 37.3007 337.674 37.3L339.09 37.3293C339.332 37.3439 339.57 37.2629 339.753 37.1038C339.935 36.9447 340.048 36.7202 340.066 36.4788L340.224 33.2214C340.224 33.0803 340.194 32.9406 340.137 32.8114C340.081 32.6822 339.997 32.5663 339.893 32.4709C339.789 32.3756 339.666 32.3029 339.532 32.2575C339.398 32.2122 339.256 32.1951 339.116 32.2074Z" fill="#EDB984"/>
<path d="M342.795 32.2719L341.406 32.3605C341.181 32.3669 340.966 32.4561 340.803 32.611C340.639 32.7659 340.539 32.9756 340.52 33.1999L340.335 36.3393C340.333 36.4738 340.358 36.6072 340.409 36.7319C340.459 36.8565 340.534 36.9699 340.629 37.0653C340.724 37.1608 340.837 37.2364 340.961 37.2877C341.085 37.3391 341.219 37.3651 341.353 37.3644L342.77 37.3937C343.012 37.4084 343.249 37.3274 343.432 37.1683C343.615 37.0092 343.727 36.7847 343.746 36.5434L343.904 33.286C343.903 33.1448 343.874 33.0052 343.817 32.876C343.76 32.7468 343.677 32.6308 343.573 32.5354C343.468 32.4401 343.345 32.3674 343.212 32.322C343.078 32.2767 342.936 32.2596 342.795 32.2719Z" fill="#EDB984"/>
<path d="M336.443 38.7389L336.59 39.9386C336.622 40.1464 336.728 40.3356 336.89 40.4702C337.051 40.6048 337.257 40.6757 337.467 40.6692L340.613 40.6908C340.739 40.6949 340.864 40.674 340.982 40.6295C341.099 40.5849 341.207 40.5176 341.298 40.4313C341.389 40.345 341.462 40.2415 341.513 40.1268C341.564 40.0121 341.592 39.8884 341.595 39.7629L341.564 38.5344C341.552 38.3094 341.452 38.0982 341.285 37.9469C341.118 37.7955 340.898 37.7162 340.673 37.7263L337.41 37.7335C337.278 37.7297 337.148 37.7535 337.026 37.8032C336.904 37.853 336.795 37.9276 336.704 38.0223C336.613 38.117 336.542 38.2297 336.497 38.3531C336.453 38.4765 336.434 38.608 336.443 38.7389Z" fill="#EDB984"/>
<path d="M342.138 37.9805L340.744 37.8129C340.477 37.7837 340.209 37.842 339.979 37.9788C339.749 38.1157 339.57 38.3238 339.469 38.5715L337.656 43.1654C337.245 44.2064 337.728 45.1155 338.679 45.0507L340.753 44.9093C341.129 44.8397 341.473 44.6536 341.738 44.3774C342.002 44.1012 342.172 43.7489 342.225 43.3705L342.987 39.1828C343.014 39.0478 343.013 38.9088 342.984 38.7742C342.955 38.6396 342.9 38.5122 342.82 38.3998C342.741 38.2874 342.639 38.1922 342.522 38.1202C342.405 38.0481 342.274 38.0006 342.138 37.9805Z" fill="#EDB984"/>
<path d="M349.22 57.2979C348.98 56.3842 348.513 55.5461 347.861 54.862C348.28 55.4393 348.59 56.088 348.777 56.7762C349.396 59.0127 348.694 61.159 347.208 61.5698C346.758 61.6573 346.294 61.6228 345.862 61.4698C345.431 61.3168 345.048 61.051 344.755 60.7C345.556 61.7874 346.653 62.3675 347.651 62.0914C349.137 61.6805 349.84 59.5345 349.22 57.2979Z" fill="#E79B69"/>
<path d="M386.637 28.3267L389.326 25.7379L390.011 29.1092C389.436 29.3397 388.804 29.3883 388.201 29.2483C387.597 29.1084 387.051 28.7867 386.637 28.3267Z" fill="#998270"/>
<path d="M385.74 43.5362L383.322 46.3795L382.305 43.0934C382.854 42.8068 383.478 42.6955 384.092 42.7748C384.706 42.854 385.282 43.1198 385.74 43.5362Z" fill="#998270"/>
<path d="M393.329 36.0005L395.952 38.6551L392.587 39.3802C392.349 38.8088 392.292 38.1782 392.425 37.5737C392.558 36.9692 392.873 36.4201 393.329 36.0005Z" fill="#998270"/>
<path d="M378.078 33.8667L375.721 30.9731L379.141 30.5737C379.323 31.1653 379.318 31.7984 379.128 32.3873C378.938 32.9763 378.571 33.4927 378.078 33.8667Z" fill="#998270"/>
<path d="M378.297 31.2081C377.414 32.6418 376.977 34.3046 377.041 35.9865C377.105 37.6683 377.666 39.2935 378.654 40.6566C379.642 42.0197 381.013 43.0595 382.592 43.6444C384.172 44.2294 385.89 44.3333 387.529 43.943C389.167 43.5527 390.654 42.6858 391.799 41.4517C392.945 40.2177 393.698 38.672 393.965 37.0102C394.231 35.3483 393.998 33.6449 393.295 32.1153C392.592 30.5857 391.451 29.2987 390.016 28.4169C388.092 27.2347 385.776 26.8647 383.578 27.3881C381.38 27.9115 379.481 29.2856 378.297 31.2081Z" fill="#665648"/>
<path d="M386.733 32.9394C387.735 31.3138 388.158 29.3977 387.933 27.5018C386.584 27.1074 385.159 27.0528 383.785 27.3431C382.41 27.6333 381.129 28.2592 380.055 29.165C378.982 30.0707 378.15 31.228 377.634 32.5334C377.117 33.8388 376.933 35.2516 377.097 36.6457C378.887 37.1675 380.8 37.0875 382.541 36.4179C384.282 35.7483 385.754 34.5262 386.733 32.9394Z" fill="#7A6658"/>
<path d="M381.106 29.0144L381.124 24L384.23 27.6526C383.709 28.951 382.751 29.5395 381.106 29.0144Z" fill="#998270"/>
<path d="M390.853 41.8352L391.651 46.7857L387.992 43.6864C388.295 42.3205 389.145 41.5843 390.853 41.8352Z" fill="#998270"/>
<path d="M380.7 41.2642L375.79 42.3045L378.709 38.5004C380.089 38.7353 380.867 39.5472 380.7 41.2642Z" fill="#998270"/>
<path d="M391.188 30.2735L396.202 29.8869L392.8 33.2697C391.46 32.8565 390.795 31.9509 391.188 30.2735Z" fill="#998270"/>
<path d="M387.433 32.8609L388.171 34.9976L386.321 36.1641C385.97 35.0329 386.225 33.927 387.433 32.8609Z" fill="#998270"/>
<path d="M386.333 36.1571L385.595 34.0204L387.446 32.8539C387.797 33.985 387.541 35.091 386.333 36.1571Z" fill="#998270"/>
<path d="M326.642 37.8847C326.795 36.7475 326.449 35.7625 325.869 35.6847C325.288 35.6069 324.694 36.4658 324.541 37.603C324.389 38.7403 324.735 39.7252 325.315 39.8031C325.896 39.8809 326.49 39.022 326.642 37.8847Z" fill="#7A6658"/>
<path d="M335.835 57.658L338.043 58.8032L334.785 68.486C334.785 68.486 333.1 62.9108 335.835 57.658Z" fill="#EDE1D9"/>
<path d="M338.39 72.7472L338.746 73.3343C341.384 76.5744 342.271 75.099 342.759 72.5482L342.163 71.766L338.39 72.7472Z" fill="#4F4239"/>
<path d="M258.753 193.342C250.86 197.241 244.088 199.183 238.851 198.443L238.898 200.533C246.159 200.954 253.184 199.53 259.811 194.99L258.753 193.342Z" fill="#665648"/>
<path d="M228.959 55.5334C215.198 61.5217 221.11 79.8841 221.11 79.8841L222.882 80.2235L229.305 64.7574L228.959 55.5334Z" fill="#C6B8AF"/>
<path d="M227.645 68.7556L229.305 64.7574L228.959 55.5336C228.498 55.7341 228.062 55.9509 227.645 56.1781V68.7556Z" fill="#D3C9C1"/>
<path d="M228.615 63.6948C219.412 64.9737 220.633 77.089 222.913 81.6153L236.606 70.2358C235.717 67.2597 230.696 63.4055 228.615 63.6948Z" fill="#ADA197"/>
<path d="M228.615 63.6948C228.291 63.7398 227.983 63.8016 227.684 63.8727C225.932 65.307 224.96 67.9452 225.369 70.8063C225.505 71.9747 225.897 73.0989 226.516 74.0995C227.135 75.1 227.967 75.9525 228.952 76.5967L236.606 70.2358C235.717 67.2597 230.696 63.4055 228.615 63.6948Z" fill="#BFB6AC"/>
<path d="M243.426 67.298C231.694 64.7709 219.323 80.2974 222.967 82.2722L228.806 83.4612C242.83 84.9388 245.234 69.7827 243.426 67.298Z" fill="#4F4239"/>
<path d="M243.817 68.3045C243.757 67.9459 243.624 67.6033 243.426 67.298C231.504 64.6543 219.323 80.2974 222.967 82.2722L228.806 83.4613C230.253 83.6237 231.716 83.5871 233.154 83.3524C232.078 81.1063 241.782 68.276 243.817 68.3045Z" fill="#665648"/>
<path d="M271.241 98.7686C269.326 94.2948 266.295 91.2622 264.47 91.9951C262.646 92.7281 262.72 96.949 264.635 101.423C266.55 105.897 269.581 108.929 271.405 108.196C273.23 107.463 273.156 103.242 271.241 98.7686Z" fill="#665648"/>
<path d="M270.933 100.716C265.522 88.3402 252.244 80.4405 248.877 81.8232C245.51 83.206 245.934 95.7929 251.345 108.169C256.757 120.544 265.586 129.038 268.953 127.655C272.32 126.273 276.344 113.091 270.933 100.716Z" fill="#EAB871"/>
<path d="M251.345 108.169C256.361 119.64 264.31 127.77 268.127 127.797C271.104 124.258 273.172 112.883 268.406 101.983C263.426 90.5938 253.053 80.8619 247.827 82.7955C245.686 86.2417 246.586 97.2851 251.345 108.169Z" fill="#DB845E"/>
<path d="M265.592 102.235C260.522 90.6396 252.229 82.6648 248.862 84.0474C245.495 85.4301 246.875 95.9505 251.945 107.545C257.015 119.14 263.854 127.419 267.221 126.037C270.588 124.654 270.662 113.83 265.592 102.235Z" fill="#665648"/>
<path d="M261.368 102.402C259.036 98.2959 251.006 90.4956 247.806 92.213C244.607 93.9302 244.279 103.252 249.117 107.242C252.792 110.272 259.264 112.46 260.76 112.024C264.263 111.003 263.701 106.508 261.368 102.402Z" fill="#E79B69"/>
<path d="M229.307 87.4884C239.403 90.741 248.494 91.1144 250.624 92.7121C252.755 94.3098 253.38 105.966 251.285 106.911C249.191 107.856 233.217 106.863 233.217 106.863L229.307 87.4884Z" fill="#E79B69"/>
<path d="M185.775 159.693C190.222 143.483 199.202 125.323 210.75 124.792C222.302 124.261 223.052 132.737 217.778 139.946C212.456 147.218 192.696 164.744 192.696 164.744L185.775 159.693Z" fill="#E79B69"/>
<path d="M198.706 152.231C195.361 156.499 193.034 160.838 192.045 164.269L192.695 164.744C192.695 164.744 208.625 150.614 215.729 142.465C215.572 142.204 215.366 141.974 215.124 141.788C212.262 139.636 204.912 144.311 198.706 152.231Z" fill="#EDB984"/>
<path d="M203.019 126.679C202.616 123.14 202.175 121.112 200.233 121.307C198.291 121.501 195.584 123.845 195.987 127.384C196.389 130.923 198.29 133.634 200.232 133.439C202.174 133.244 203.422 130.218 203.019 126.679Z" fill="#4C3E34"/>
<path d="M147.92 150.991C163.777 153.25 177.261 149.404 184.907 154.798C193.093 160.574 193.128 164.79 193.128 164.79C193.128 164.79 183.379 165.962 175.369 162.768C166.915 159.397 146.51 152.651 146.51 152.651L147.92 150.991Z" fill="#E79B69"/>
<path d="M190.17 166.729C192.639 166.17 194.628 163.233 194.624 162.005C194.619 160.776 192.622 161.721 190.153 162.28C187.684 162.839 184.437 162.895 184.442 164.124C184.447 165.353 187.701 167.288 190.17 166.729Z" fill="#E79B69"/>
<path d="M241.29 194.379C236.767 179.294 226.811 171.448 228.758 162.175C230.843 152.249 234.583 147.754 234.583 147.754C234.583 147.754 239.819 155.838 240.135 164.411C240.469 173.459 242.608 194.651 242.608 194.651L241.29 194.379Z" fill="#EDB984"/>
<path d="M237.48 173.207C236.073 163.618 235.634 155.154 236.15 150.554C235.265 148.809 234.583 147.754 234.583 147.754C234.583 147.754 229.354 150.86 227.269 160.787C225.321 170.059 236.767 179.294 241.29 194.379L242.424 194.613C240.685 190.153 238.811 182.276 237.48 173.207Z" fill="#E79B69"/>
<path d="M239.711 198.961C243.847 200.215 255.66 196.077 258.242 194.048C258.748 191.972 246.965 195.391 243.557 192.19C237.352 186.364 239.711 198.961 239.711 198.961Z" fill="#EDB984"/>
<path d="M229.907 100.757C227.326 99.4732 212.574 90.1841 210.951 91.3447C209.953 92.0577 200.237 110.756 198.806 122.813C206.685 127.987 213.339 129.614 221.787 127.853C223.34 116.099 232.359 112.634 232.359 112.634C232.359 112.634 232.488 102.04 229.907 100.757Z" fill="#E79B69"/>
<path d="M210.092 112.555C208.533 112.124 207.12 111.28 206.001 110.113C204.883 108.945 204.101 107.497 203.739 105.922C202.831 108.161 201.955 110.502 201.193 112.833L210.092 112.555Z" fill="#D27558"/>
<path d="M207.538 124.573C207.163 125.315 206.832 126.079 206.547 126.861C211.115 128.591 216.08 128.994 220.867 128.024C223.63 122.2 223.091 116.729 219.569 115.672C215.95 114.587 210.563 118.572 207.538 124.573Z" fill="#EDB984"/>
<path d="M197.911 124.828C212.02 130.325 217.498 138.187 217.498 138.187C220.237 136.931 223.611 132.294 224.227 127.628C224.249 127.47 224.233 127.309 224.179 127.159C224.125 127.009 224.035 126.874 223.917 126.767C223.799 126.659 223.656 126.582 223.502 126.543C223.347 126.503 223.185 126.502 223.03 126.539C219.599 127.376 211.221 129.412 200.552 121.605C198.918 120.409 195.717 123.973 197.911 124.828Z" fill="#665648"/>
<path d="M207.191 127.986C207.191 127.166 207.301 126.35 207.518 125.56C205.043 124.532 202.703 123.203 200.552 121.605C198.918 120.409 195.717 123.973 197.911 124.828C201.181 126.09 204.33 127.647 207.318 129.478C207.235 128.985 207.193 128.486 207.191 127.986Z" fill="#4C3E34"/>
<path d="M223.03 126.539C222.84 126.585 222.631 126.636 222.411 126.688C222.487 127.161 222.527 127.639 222.53 128.118C222.53 132.352 219.678 135.821 215.97 136.381C216.517 136.95 217.027 137.553 217.498 138.187C220.237 136.931 223.611 132.294 224.226 127.628C224.249 127.47 224.233 127.309 224.179 127.159C224.125 127.009 224.035 126.874 223.917 126.767C223.799 126.659 223.656 126.582 223.502 126.543C223.347 126.503 223.185 126.502 223.03 126.539Z" fill="#4C3E34"/>
<path d="M235.466 90.207C238.305 100.049 235.749 112.086 234.776 113.979C233.803 115.873 209.363 111.831 206.358 110.708C203.353 109.586 207.11 92.3869 208.879 90.0679C210.648 87.749 221.439 84.3842 223.473 84.3153C225.508 84.2465 235.186 89.2344 235.466 90.207Z" fill="#EDB984"/>
<path d="M212.084 85.7048C213.74 87.2103 218.421 89.8838 220.818 91.2227C227.798 95.1225 234.696 96.1408 236.226 93.4972C236.29 93.3842 236.343 93.2658 236.385 93.1433C236.213 92.0812 235.98 91.0301 235.685 89.9952C235.404 89.0226 225.223 83.9041 223.189 83.9729C222.02 84.0125 215.661 84.3133 212.084 85.7048Z" fill="#E79B69"/>
<path d="M216.862 102.589C219.773 95.8422 219.962 89.1634 217.677 85.7974C214.029 87.0005 209.913 88.7125 208.879 90.0679C207.11 92.3869 202.364 110.121 205.369 111.244C207.075 111.688 208.838 111.869 210.599 111.779C213.297 109.178 215.429 106.05 216.862 102.589Z" fill="#E79B69"/>
<path d="M217.343 98.0704C221.03 91.4728 220.562 83.9271 216.285 81.1189C211.951 78.274 205.295 81.3171 201.431 88.0174C197.524 94.7929 198.028 102.591 202.542 105.331C206.996 108.035 213.616 104.74 217.343 98.0704Z" fill="#C6B8AF"/>
<path d="M206.611 84.8333C194.906 87.7082 190.039 92.931 186.058 95.7495C184.304 96.9921 183.537 106.88 186.987 107.558C190.437 108.236 203.704 108.092 207.95 105.665C212.196 103.237 217.105 93.9429 215.645 89.2619C214.497 85.5794 208.794 84.2972 206.611 84.8333Z" fill="#BCB2AA"/>
<path d="M215.645 89.2619C214.497 85.5792 208.794 84.2972 206.612 84.8333C203.583 85.5586 200.635 86.5877 197.813 87.9047C203.394 86.3279 209.149 86.5419 210.616 89.4223C212.478 93.0792 209.327 101.044 201.361 102.733C193.148 104.475 187.742 106.272 184.777 104.222C185.089 105.952 185.779 107.321 186.987 107.558C190.437 108.236 203.704 108.092 207.95 105.665C212.196 103.237 217.105 93.9429 215.645 89.2619Z" fill="#ADA197"/>
<path d="M177.169 112.79C174.399 112.766 171.462 104.209 173.32 102.279C175.177 100.35 186.191 93.5461 190.039 93.32C195.208 93.0163 202.445 104.379 194.286 107.892C189.335 110.023 178.628 112.803 177.169 112.79Z" fill="#BFB6AC"/>
<path d="M191.517 95.1844C193.753 95.7477 180.949 101.277 179.591 100.967C178.232 100.658 189.038 94.56 191.517 95.1844Z" fill="#E2D6CF"/>
<path d="M205.653 89.2859C207.096 89.9604 197.045 93.6967 195.305 93.2335C193.427 92.7341 203.916 88.4746 205.653 89.2859Z" fill="#E2D6CF"/>
<path d="M190.039 93.32C189.898 93.3283 189.745 93.3479 189.586 93.3732C192.064 93.8718 193.944 94.9396 194.948 96.7658C198.431 103.1 191.79 105.115 186.368 106.849C180.946 108.584 175.775 107.086 174.818 103.505C174.613 102.691 174.622 101.839 174.843 101.03C174.304 101.407 173.795 101.825 173.32 102.279C171.462 104.209 174.399 112.766 177.169 112.79C178.628 112.803 190.362 110.226 195.312 108.094C203.471 104.581 195.207 93.0163 190.039 93.32Z" fill="#ADA197"/>
<path d="M177.156 99.9129C174.184 99.48 167.268 100.093 165.709 101.332C164.15 102.57 165.919 114.141 169.45 114.365C172.98 114.588 178.316 113 179.119 111.393C179.923 109.786 179.66 100.277 177.156 99.9129Z" fill="#ADA197"/>
<path d="M166.106 63.7181L159.808 53.2069L158.046 65.2238L169.517 100.234L173.716 99.0074L166.106 63.7181Z" fill="#B5C5C6"/>
<path d="M165.768 88.7926L170.429 83.7674L166.106 63.7181L165.805 63.2169L160.764 73.5206L165.768 88.7926Z" fill="#C5D6D6"/>
<path d="M166.106 63.7181L159.808 53.2069L159.606 54.5796L165.134 63.8049L172.744 99.0941L169.458 100.055L169.517 100.234L173.716 99.0074L166.106 63.7181Z" fill="#D8EAEA"/>
<path d="M171.1 101.384L160.745 62.9696L172.213 101.117L171.1 101.384Z" fill="#A1B2B2"/>
<path d="M251.727 105.229C251.416 100.435 253.849 96.2948 257.161 95.9813C257.852 95.9206 258.548 96.028 259.188 96.2943C258.726 95.7673 258.151 95.3519 257.505 95.0795C256.859 94.8071 256.16 94.6848 255.46 94.7219C252.147 95.0355 249.737 99.5287 250.077 104.758C250.416 109.987 253.376 113.972 256.688 113.658C257.102 113.618 257.508 113.514 257.89 113.349C254.744 113.349 252.026 109.829 251.727 105.229Z" fill="#665648"/>
<path d="M256.517 107.525C256.207 102.731 258.639 98.591 261.952 98.2774C262.642 98.2167 263.338 98.3242 263.978 98.5906C263.517 98.0636 262.941 97.6481 262.295 97.3757C261.649 97.1033 260.95 96.981 260.25 97.0181C256.938 97.3316 254.528 101.825 254.867 107.054C255.206 112.283 258.166 116.268 261.478 115.955C261.892 115.915 262.298 115.81 262.68 115.645C259.534 115.645 256.816 112.125 256.517 107.525Z" fill="#665648"/>
<path d="M221.1 84.7799L227.365 77.087L235.175 80.1929L232.407 89.1474C232.407 89.1474 228.957 93.6131 221.1 84.7799Z" fill="#D27558"/>
<path d="M233.577 87.9415C230.336 87.2863 225.208 82.491 224.849 79.7572C227.189 76.4618 233.584 71.6807 238.284 73.2577C239.226 73.574 237.239 88.6817 233.577 87.9415Z" fill="#D3C9C1"/>
<path d="M234.615 78.0763C235.802 78.0289 236.99 78.1277 238.153 78.3703C238.576 75.6487 238.643 73.3782 238.284 73.2577C233.584 71.6807 227.189 76.4618 224.849 79.7572C224.912 80.1568 225.036 80.5445 225.215 80.9072C228.048 79.1615 231.288 78.1857 234.615 78.0763Z" fill="#B5A399"/>
<path d="M237.377 78.9762C237.563 79.1178 237.774 79.2231 237.999 79.2865C238.215 78.1039 238.37 76.9112 238.466 75.713C238.173 75.4083 237.784 75.2146 237.364 75.1648C236.85 75.2407 236.964 78.5391 237.377 78.9762Z" fill="#5E5752"/>
<path d="M235.574 74.84C234.274 74.3738 230.071 76.6528 230.047 77.8169C230.034 78.4734 234.771 78.9078 235.37 78.6194C235.969 78.3312 236.289 75.0966 235.574 74.84Z" fill="#5E5752"/>
<path d="M235.465 158.941C218.431 157.471 197.717 149.997 195.754 134.374C194.224 122.191 201.742 123.629 210.019 128.871C218.296 134.113 239.065 153.635 239.065 153.635L235.465 158.941Z" fill="#EDB984"/>
<path d="M215.755 143.842C207.788 137.581 202.695 130.194 202.51 125.316C197.828 124.128 194.719 126.131 195.754 134.374C197.717 149.997 218.431 157.471 235.465 158.941L239.065 153.635C239.065 153.635 238.566 153.166 237.695 152.357C232.908 153.643 224.06 150.369 215.755 143.842Z" fill="#E79B69"/>
<path d="M220.381 113.51L223.661 113.325L226.503 106.298L225.41 113.483L226.138 115.056L220.381 113.51Z" fill="#E79B69"/>
<path d="M215.929 110.899C215.993 110.463 215.364 110.068 214.524 110.016C213.684 109.964 212.951 110.275 212.887 110.712C212.823 111.148 213.452 111.543 214.292 111.595C215.132 111.647 215.865 111.335 215.929 110.899Z" fill="#E79B69"/>
<path d="M234.547 113.308C234.611 112.872 234.139 112.5 233.493 112.477C232.847 112.454 232.271 112.789 232.207 113.225C232.143 113.661 232.615 114.033 233.261 114.056C233.907 114.079 234.483 113.745 234.547 113.308Z" fill="#E79B69"/>
<path d="M234.5 75.4148C233.581 75.0848 230.605 76.698 230.589 77.522C230.579 77.9865 233.932 78.2941 234.356 78.09C234.78 77.8859 235.006 75.5964 234.5 75.4148Z" fill="#3F3B38"/>
<path d="M237.34 78.2024C237.448 78.2845 237.57 78.3456 237.701 78.3824C237.826 77.6968 237.916 77.0054 237.971 76.3108C237.802 76.1343 237.576 76.022 237.333 75.9931C237.034 76.0371 237.101 77.949 237.34 78.2024Z" fill="#3F3B38"/>
<path d="M243.28 68.7925C243.735 69.6952 243.913 70.7118 243.792 71.7151C244.107 69.6792 243.932 67.9928 243.426 67.298C231.611 64.4394 221.746 76.9546 222.283 81.1391C223.612 76.081 232.657 66.2223 243.28 68.7925Z" fill="#D3C9C1"/>
<path d="M228.786 64.2495C228.853 66.2483 230.213 67.8566 231.887 67.871C232.56 67.8698 233.21 67.62 233.71 67.1696C232.162 65.5254 229.971 64.1619 228.786 64.2495Z" fill="#D3C9C1"/>
<path d="M216.285 81.1189C213.697 79.4203 210.282 79.8221 207.127 81.8468C209.961 80.3891 212.901 80.2465 215.192 81.7506C219.469 84.5586 219.937 92.1045 216.25 98.7019C214.853 101.282 212.848 103.483 210.408 105.116C213.353 103.486 215.762 101.039 217.343 98.0704C221.03 91.4728 220.562 83.9271 216.285 81.1189Z" fill="#E2D6CF"/>
<path d="M191.662 108.364L191.735 108.441C194.237 103.498 191.616 95.4242 185.534 94.7815C185.143 94.9596 184.743 95.1501 184.337 95.35C190.714 95.3162 193.707 103.164 191.662 108.364Z" fill="#91867D"/>
<path d="M180.784 97.2465C180.49 97.4145 180.199 97.5836 179.91 97.7537C185.373 98.7206 187.815 105.832 185.917 110.659L185.963 110.709L186.008 110.696C188.337 106.027 186.137 98.6067 180.784 97.2465Z" fill="#91867D"/>
<path d="M201.588 103.791L201.653 103.875C205.001 98.68 202.428 88.992 194.694 89.5466C194.331 89.7594 193.982 89.9727 193.641 90.1862C201.527 89.1044 204.42 98.3365 201.588 103.791Z" fill="#91867D"/>
<path d="M207.929 100.427L207.993 100.511C211.184 95.5599 208.999 86.5223 202.093 86.1645C201.535 86.358 200.996 86.5564 200.474 86.7598C207.99 86.1183 210.701 95.0866 207.929 100.427Z" fill="#91867D"/>
<path d="M197.499 105.041C197.499 105.041 194.005 106.134 185.136 110.189C188.598 109.399 191.998 108.362 195.312 107.088C195.494 107.009 195.658 106.923 195.824 106.836C198.365 106.749 200.898 106.491 203.404 106.065L197.499 105.041Z" fill="#BCB2AA"/>
<path d="M169.64 101.652L174.061 113.827L176.67 112.994L174.311 100.45L169.64 101.652Z" fill="#665648"/>
<path d="M175.424 116.865C173.401 117.166 172.119 114.443 172.119 114.443L178.402 112.364C178.402 112.364 180.107 116.167 175.424 116.865Z" fill="#E5AF6E"/>
<path d="M170.256 102.155C169.38 102.334 168.469 102.221 167.663 101.833C166.857 101.445 166.2 100.804 165.794 100.008L176.237 96.8639C176.237 96.8639 177.983 101.103 170.256 102.155Z" fill="#665648"/>
<path d="M165.944 101.715C169.054 100.049 172.357 100.108 172.648 100.538C173.249 101.424 173.62 103.586 172.745 104.005C171.871 104.425 167.11 105.904 166.235 105.469C165.361 105.034 165.122 102.155 165.944 101.715Z" fill="#BFB6AC"/>
<path d="M177.236 100.015C178.896 103.108 178.789 106.333 178.345 106.604C177.43 107.164 175.214 107.457 174.797 106.589C174.38 105.721 172.935 101.021 173.392 100.181C173.85 99.34 176.798 99.1986 177.236 100.015Z" fill="#BFB6AC"/>
<path d="M166.576 106.466C169.686 104.882 172.989 104.94 173.28 105.349C173.881 106.192 174.252 108.248 173.377 108.647C172.503 109.046 167.742 110.45 166.867 110.036C165.993 109.622 165.754 106.884 166.576 106.466Z" fill="#BFB6AC"/>
<path d="M168.773 110.469C171.651 109.148 174.708 109.484 174.978 109.918C175.534 110.811 175.877 112.899 175.067 113.224C174.258 113.549 169.852 114.552 169.042 114.064C168.233 113.576 168.012 110.817 168.773 110.469Z" fill="#BFB6AC"/>
<path d="M254 192.982L254.861 196.551L257.183 195.526L256.022 192.715L254 192.982Z" fill="#665648"/>
<path d="M251.235 192.958L251.839 197.854L249.615 198.832L249.361 193.322L251.235 192.958Z" fill="#665648"/>
<path d="M239.159 192.332L238.721 195.747L241.977 199.716L243.823 199.447L239.159 192.332Z" fill="#665648"/>
<path d="M245.62 199.178C245.62 198.988 244.746 193.045 244.746 193.045L247.272 192.971L247.126 198.93L245.62 199.178Z" fill="#665648"/>
<path d="M135.493 159.262C140.86 152.399 146.085 147.783 151.115 146.243L150.15 144.37C143.442 147.052 137.761 151.306 133.814 158.215L135.493 159.262Z" fill="#665648"/>
<path d="M150.114 146.137C145.845 146.746 137.062 155.479 135.639 158.407C136.102 160.501 145.175 152.432 149.65 153.893C157.796 156.552 150.114 146.137 150.114 146.137Z" fill="#E79B69"/>
<path d="M139.92 157.583L137.571 154.713L135.938 156.621L138.223 158.677L139.92 157.583Z" fill="#665648"/>
<path d="M142.414 156.437L139.709 152.257L141.275 150.432L143.937 155.317L142.414 156.437Z" fill="#665648"/>
<path d="M144.711 148.434C144.795 148.606 148.205 153.62 148.205 153.62L145.968 154.753L143.468 149.294L144.711 148.434Z" fill="#665648"/>
<path d="M257.232 108.867C255.677 109.281 254.268 108.556 254.171 107.606C254.074 106.655 254.223 101.862 255.288 101.252C256.353 100.642 258.835 100.048 260.584 101.108C261.101 101.466 261.512 101.955 261.777 102.525C262.042 103.095 262.15 103.725 262.09 104.35L257.232 108.867Z" fill="#EFA873"/>
<path d="M263.605 102.101C261.697 101.231 258.023 101.891 256.983 102.495C255.969 103.085 255.543 111.7 257.556 112.817C259.704 114.009 263.484 114.391 264.262 113.327C265.049 112.251 265.299 102.873 263.605 102.101Z" fill="#E79B69"/>
<path d="M227.555 93.0865C227.769 92.6906 226.367 91.519 224.423 90.4698C222.479 89.4206 220.73 88.891 220.516 89.287C220.302 89.6829 221.704 90.8543 223.648 91.9035C225.592 92.9527 227.341 93.4824 227.555 93.0865Z" fill="#D27558"/>
<path d="M235.025 91.5796C234.849 91.284 233.962 91.306 233.043 91.6287C232.123 91.9514 231.521 92.4526 231.696 92.7482C231.872 93.0438 232.76 93.0217 233.679 92.699C234.598 92.3763 235.2 91.8751 235.025 91.5796Z" fill="#D27558"/>
<path d="M216.757 126.464C216.842 126.045 216.712 125.666 216.467 125.616C216.222 125.566 215.954 125.865 215.869 126.284C215.784 126.703 215.914 127.083 216.159 127.132C216.405 127.182 216.672 126.883 216.757 126.464Z" fill="#E79B69"/>
<path d="M226.541 157.654L233.615 152.509L235.882 156.736L227.609 159.331L226.541 157.654Z" fill="#665648"/>
<path d="M239.811 150.899C238.17 147.815 234.877 146.898 233.151 147.37C231.424 147.843 231.355 150.726 232.996 153.81C234.637 156.894 237.367 159.01 239.093 158.538C240.82 158.065 241.452 153.983 239.811 150.899Z" fill="#665648"/>
<path d="M239.754 150.988C238.326 148.324 235.691 147.409 234.351 147.731C233.011 148.053 233.083 150.474 234.511 153.138C235.939 155.803 238.183 157.702 239.522 157.38C240.862 157.057 241.182 153.653 239.754 150.988Z" fill="#BCB2AA"/>
<path d="M235.36 148.004C235.486 149.137 235.842 150.232 236.406 151.222C237.506 153.275 239.118 154.848 240.364 155.199C240.473 153.785 240.177 152.369 239.512 151.116C239.108 150.311 238.523 149.611 237.803 149.071C237.082 148.531 236.246 148.166 235.36 148.004Z" fill="#E2D6CF"/>
<path d="M187.324 154.268L190.493 161.892L185.879 162.635L185.451 154.708L187.324 154.268Z" fill="#665648"/>
<path d="M190.335 168.081C193.765 167.404 195.597 164.521 195.644 162.733C195.69 160.946 192.948 160.045 189.518 160.722C186.089 161.399 183.271 163.397 183.224 165.184C183.177 166.972 186.906 168.758 190.335 168.081Z" fill="#665648"/>
<path d="M190.267 168.001C193.233 167.406 194.872 165.151 194.951 163.777C195.03 162.403 192.69 161.77 189.724 162.365C186.757 162.959 184.289 164.556 184.209 165.93C184.13 167.304 187.3 168.595 190.267 168.001Z" fill="#ADA197"/>
<path d="M194.397 164.662C193.276 164.455 192.123 164.479 191.011 164.732C188.726 165.19 186.752 166.276 186.055 167.366C187.378 167.879 188.821 168.006 190.214 167.732C191.102 167.579 191.942 167.222 192.668 166.689C193.394 166.157 193.986 165.463 194.397 164.662Z" fill="#BFB6AC"/>
<path d="M236.508 73.1235C236.23 73.0534 235.947 73.0046 235.662 72.9775C235.389 73.0003 235.114 73.0368 234.838 73.0869C235.251 73.1007 235.661 73.1589 236.062 73.2605C236.895 73.4761 236.195 85.1928 233.568 87.9391L233.577 87.9415C233.666 87.9574 233.757 87.9638 233.847 87.9606C236.61 85.5476 237.359 73.3436 236.508 73.1235Z" fill="#B5A399"/>
<path d="M233.377 85.783C233.493 85.3284 233.422 84.9184 233.22 84.8671C233.018 84.8158 232.76 85.1427 232.645 85.5973C232.529 86.0519 232.6 86.462 232.802 86.5132C233.004 86.5645 233.262 86.2375 233.377 85.783Z" fill="#897A6F"/>
<path d="M234.775 83.2732C234.89 82.8187 234.82 82.4086 234.618 82.3573C234.416 82.3061 234.158 82.633 234.043 83.0876C233.927 83.5421 233.997 83.9522 234.2 84.0034C234.402 84.0548 234.66 83.7279 234.775 83.2732Z" fill="#897A6F"/>
<path d="M237.205 81.3776C237.31 80.966 237.298 80.6079 237.179 80.5778C237.06 80.5477 236.879 80.8569 236.775 81.2684C236.67 81.68 236.682 82.038 236.801 82.0682C236.92 82.0983 237.101 81.7891 237.205 81.3776Z" fill="#897A6F"/>
<path d="M236.601 83.8684C236.705 83.4568 236.694 83.0988 236.575 83.0686C236.456 83.0385 236.275 83.3478 236.17 83.7593C236.066 84.1708 236.077 84.5289 236.196 84.5591C236.315 84.5892 236.496 84.2799 236.601 83.8684Z" fill="#897A6F"/>
<path d="M233.642 81.1597C233.757 80.7053 233.687 80.2952 233.485 80.2439C233.282 80.1927 233.025 80.5195 232.909 80.9742C232.794 81.4287 232.864 81.8387 233.066 81.89C233.269 81.9412 233.526 81.6144 233.642 81.1597Z" fill="#897A6F"/>
<path d="M232.357 83.6883C232.473 83.2338 232.403 82.8238 232.2 82.7725C231.998 82.7213 231.74 83.0481 231.625 83.5028C231.509 83.9572 231.58 84.3673 231.782 84.4185C231.984 84.4698 232.242 84.143 232.357 83.6883Z" fill="#897A6F"/>
<path d="M231.035 81.3862C231.15 80.9317 231.08 80.5216 230.878 80.4704C230.676 80.4191 230.418 80.746 230.303 81.2006C230.187 81.6551 230.257 82.0652 230.46 82.1165C230.662 82.1677 230.919 81.8408 231.035 81.3862Z" fill="#897A6F"/>
<path d="M425.803 194.18L422.117 193.195L418.937 188.921L422.867 189.139L423.85 185.272L426.848 191.778L425.803 194.18Z" fill="#DDC990"/>
<path d="M433.19 207.616L422.407 189.1L423.047 188.696L433.83 207.212L433.19 207.616Z" fill="#9E7766"/>
</g>
<path d="M25.38 28.26C27.452 28.26 29.2627 28.68 30.812 29.52C32.38 30.3413 33.584 31.4987 34.424 32.992C35.264 34.4853 35.684 36.1933 35.684 38.116C35.684 40.02 35.2547 41.7187 34.396 43.212C33.556 44.7053 32.352 45.8813 30.784 46.74C29.2347 47.58 27.4333 48 25.38 48H17.568V28.26H25.38ZM24.96 43.156C26.5653 43.156 27.8253 42.7173 28.74 41.84C29.6547 40.9627 30.112 39.7213 30.112 38.116C30.112 36.492 29.6547 35.2413 28.74 34.364C27.8253 33.468 26.5653 33.02 24.96 33.02H23.056V43.156H24.96ZM43.5338 28.26V39.712C43.5338 40.776 43.7765 41.5973 44.2618 42.176C44.7658 42.7547 45.5218 43.044 46.5298 43.044C47.5378 43.044 48.2938 42.7547 48.7978 42.176C49.3205 41.5787 49.5818 40.7573 49.5818 39.712V28.26H55.0698V39.712C55.0698 41.5227 54.6872 43.072 53.9218 44.36C53.1565 45.6293 52.1112 46.5907 50.7858 47.244C49.4792 47.8787 48.0232 48.196 46.4178 48.196C44.8125 48.196 43.3752 47.8787 42.1058 47.244C40.8552 46.5907 39.8658 45.6293 39.1378 44.36C38.4285 43.0907 38.0738 41.5413 38.0738 39.712V28.26H43.5338ZM63.5794 32.656V35.876H69.8794V40.048H63.5794V43.604H70.7194V48H58.0914V28.26H70.7194V32.656H63.5794ZM78.9193 43.8H85.0513V48H73.4313V28.26H78.9193V43.8ZM105.033 44.78H98.0326L96.9686 48H91.2006L98.3966 28.26H104.725L111.893 48H106.097L105.033 44.78ZM103.661 40.58L101.533 34.196L99.4326 40.58H103.661ZM123.677 48L119.757 40.72H119.169V48H113.681V28.26H122.333C123.92 28.26 125.264 28.54 126.365 29.1C127.467 29.6413 128.297 30.3973 128.857 31.368C129.417 32.32 129.697 33.3933 129.697 34.588C129.697 35.932 129.324 37.1173 128.577 38.144C127.849 39.152 126.776 39.8707 125.357 40.3L129.809 48H123.677ZM119.169 36.968H121.885C122.632 36.968 123.192 36.7907 123.565 36.436C123.939 36.0813 124.125 35.568 124.125 34.896C124.125 34.2613 123.929 33.7667 123.537 33.412C123.164 33.0387 122.613 32.852 121.885 32.852H119.169V36.968ZM137.681 32.656V35.876H143.981V40.048H137.681V43.604H144.821V48H132.193V28.26H144.821V32.656H137.681ZM165.817 48H160.329L153.021 36.968V48H147.533V28.26H153.021L160.329 39.432V28.26H165.817V48ZM181.431 44.78H174.431L173.367 48H167.599L174.795 28.26H181.123L188.291 48H182.495L181.431 44.78ZM180.059 40.58L177.931 34.196L175.831 40.58H180.059Z" fill="white"/>
<path d="M26.404 59.324C26.404 59.996 26.242 60.626 25.918 61.214C25.606 61.802 25.108 62.276 24.424 62.636C23.752 62.996 22.9 63.176 21.868 63.176H19.762V68H17.242V55.436H21.868C22.84 55.436 23.668 55.604 24.352 55.94C25.036 56.276 25.546 56.738 25.882 57.326C26.23 57.914 26.404 58.58 26.404 59.324ZM21.76 61.142C22.456 61.142 22.972 60.986 23.308 60.674C23.644 60.35 23.812 59.9 23.812 59.324C23.812 58.1 23.128 57.488 21.76 57.488H19.762V61.142H21.76ZM39.4792 55.436L34.8712 68H31.8112L27.2032 55.436H29.9032L33.3592 65.426L36.7972 55.436H39.4792ZM50.152 59.324C50.152 59.996 49.99 60.626 49.666 61.214C49.354 61.802 48.856 62.276 48.172 62.636C47.5 62.996 46.648 63.176 45.616 63.176H43.51V68H40.99V55.436H45.616C46.588 55.436 47.416 55.604 48.1 55.94C48.784 56.276 49.294 56.738 49.63 57.326C49.978 57.914 50.152 58.58 50.152 59.324ZM45.508 61.142C46.204 61.142 46.72 60.986 47.056 60.674C47.392 60.35 47.56 59.9 47.56 59.324C47.56 58.1 46.876 57.488 45.508 57.488H43.51V61.142H45.508ZM63.9343 65.606H58.9303L58.1023 68H55.4563L59.9743 55.418H62.9083L67.4263 68H64.7623L63.9343 65.606ZM63.2503 63.59L61.4323 58.334L59.6143 63.59H63.2503ZM79.861 68H77.341L71.635 59.378V68H69.115V55.418H71.635L77.341 64.058V55.418H79.861V68ZM86.7434 55.436C88.0634 55.436 89.2214 55.694 90.2174 56.21C91.2254 56.726 91.9994 57.464 92.5394 58.424C93.0914 59.372 93.3674 60.476 93.3674 61.736C93.3674 62.996 93.0914 64.1 92.5394 65.048C91.9994 65.984 91.2254 66.71 90.2174 67.226C89.2214 67.742 88.0634 68 86.7434 68H82.3514V55.436H86.7434ZM86.6534 65.858C87.9734 65.858 88.9934 65.498 89.7134 64.778C90.4334 64.058 90.7934 63.044 90.7934 61.736C90.7934 60.428 90.4334 59.408 89.7134 58.676C88.9934 57.932 87.9734 57.56 86.6534 57.56H84.8714V65.858H86.6534ZM19.762 73.436V86H17.242V73.436H19.762ZM32.9978 86H30.4778L24.7718 77.378V86H22.2518V73.418H24.7718L30.4778 82.058V73.418H32.9978V86ZM39.8261 86.126C38.9501 86.126 38.1581 85.976 37.4501 85.676C36.7541 85.376 36.2021 84.944 35.7941 84.38C35.3861 83.816 35.1761 83.15 35.1641 82.382H37.8641C37.9001 82.898 38.0801 83.306 38.4041 83.606C38.7401 83.906 39.1961 84.056 39.7721 84.056C40.3601 84.056 40.8221 83.918 41.1581 83.642C41.4941 83.354 41.6621 82.982 41.6621 82.526C41.6621 82.154 41.5481 81.848 41.3201 81.608C41.0921 81.368 40.8041 81.182 40.4561 81.05C40.1201 80.906 39.6521 80.75 39.0521 80.582C38.2361 80.342 37.5701 80.108 37.0541 79.88C36.5501 79.64 36.1121 79.286 35.7401 78.818C35.3801 78.338 35.2001 77.702 35.2001 76.91C35.2001 76.166 35.3861 75.518 35.7581 74.966C36.1301 74.414 36.6521 73.994 37.3241 73.706C37.9961 73.406 38.7641 73.256 39.6281 73.256C40.9241 73.256 41.9741 73.574 42.7781 74.21C43.5941 74.834 44.0441 75.71 44.1281 76.838H41.3561C41.3321 76.406 41.1461 76.052 40.7981 75.776C40.4621 75.488 40.0121 75.344 39.4481 75.344C38.9561 75.344 38.5601 75.47 38.2601 75.722C37.9721 75.974 37.8281 76.34 37.8281 76.82C37.8281 77.156 37.9361 77.438 38.1521 77.666C38.3801 77.882 38.6561 78.062 38.9801 78.206C39.3161 78.338 39.7841 78.494 40.3841 78.674C41.2001 78.914 41.8661 79.154 42.3821 79.394C42.8981 79.634 43.3421 79.994 43.7141 80.474C44.0861 80.954 44.2721 81.584 44.2721 82.364C44.2721 83.036 44.0981 83.66 43.7501 84.236C43.4021 84.812 42.8921 85.274 42.2201 85.622C41.5481 85.958 40.7501 86.126 39.8261 86.126ZM55.0068 73.436V75.47H51.6588V86H49.1388V75.47H45.7908V73.436H55.0068ZM64.5495 83.606H59.5455L58.7175 86H56.0715L60.5895 73.418H63.5235L68.0415 86H65.3775L64.5495 83.606ZM63.8655 81.59L62.0475 76.334L60.2295 81.59H63.8655ZM80.4763 86H77.9563L72.2503 77.378V86H69.7303V73.418H72.2503L77.9563 82.058V73.418H80.4763V86ZM91.5166 73.436V75.47H88.1686V86H85.6486V75.47H82.3006V73.436H91.5166ZM102.036 73.436C103.356 73.436 104.514 73.694 105.51 74.21C106.518 74.726 107.292 75.464 107.832 76.424C108.384 77.372 108.66 78.476 108.66 79.736C108.66 80.996 108.384 82.1 107.832 83.048C107.292 83.984 106.518 84.71 105.51 85.226C104.514 85.742 103.356 86 102.036 86H97.6443V73.436H102.036ZM101.946 83.858C103.266 83.858 104.286 83.498 105.006 82.778C105.726 82.058 106.086 81.044 106.086 79.736C106.086 78.428 105.726 77.408 105.006 76.676C104.286 75.932 103.266 75.56 101.946 75.56H100.164V83.858H101.946ZM113.031 73.436V81.212C113.031 82.064 113.253 82.718 113.697 83.174C114.141 83.618 114.765 83.84 115.569 83.84C116.385 83.84 117.015 83.618 117.459 83.174C117.903 82.718 118.125 82.064 118.125 81.212V73.436H120.663V81.194C120.663 82.262 120.429 83.168 119.961 83.912C119.505 84.644 118.887 85.196 118.107 85.568C117.339 85.94 116.481 86.126 115.533 86.126C114.597 86.126 113.745 85.94 112.977 85.568C112.221 85.196 111.621 84.644 111.177 83.912C110.733 83.168 110.511 82.262 110.511 81.194V73.436H113.031ZM125.617 75.47V78.62H129.847V80.618H125.617V83.948H130.387V86H123.097V73.418H130.387V75.47H125.617ZM135.198 84.002H139.338V86H132.678V73.436H135.198V84.002ZM145.277 86.126C144.401 86.126 143.609 85.976 142.901 85.676C142.205 85.376 141.653 84.944 141.245 84.38C140.837 83.816 140.627 83.15 140.615 82.382H143.315C143.351 82.898 143.531 83.306 143.855 83.606C144.191 83.906 144.647 84.056 145.223 84.056C145.811 84.056 146.273 83.918 146.609 83.642C146.945 83.354 147.113 82.982 147.113 82.526C147.113 82.154 146.999 81.848 146.771 81.608C146.543 81.368 146.255 81.182 145.907 81.05C145.571 80.906 145.103 80.75 144.503 80.582C143.687 80.342 143.021 80.108 142.505 79.88C142.001 79.64 141.563 79.286 141.191 78.818C140.831 78.338 140.651 77.702 140.651 76.91C140.651 76.166 140.837 75.518 141.209 74.966C141.581 74.414 142.103 73.994 142.775 73.706C143.447 73.406 144.215 73.256 145.079 73.256C146.375 73.256 147.425 73.574 148.229 74.21C149.045 74.834 149.495 75.71 149.579 76.838H146.807C146.783 76.406 146.597 76.052 146.249 75.776C145.913 75.488 145.463 75.344 144.899 75.344C144.407 75.344 144.011 75.47 143.711 75.722C143.423 75.974 143.279 76.34 143.279 76.82C143.279 77.156 143.387 77.438 143.603 77.666C143.831 77.882 144.107 78.062 144.431 78.206C144.767 78.338 145.235 78.494 145.835 78.674C146.651 78.914 147.317 79.154 147.833 79.394C148.349 79.634 148.793 79.994 149.165 80.474C149.537 80.954 149.723 81.584 149.723 82.364C149.723 83.036 149.549 83.66 149.201 84.236C148.853 84.812 148.343 85.274 147.671 85.622C146.999 85.958 146.201 86.126 145.277 86.126Z" fill="white"/>
<rect x="16" y="138" width="97" height="38" rx="19" fill="white" fill-opacity="0.35"/>
<path d="M40.092 155.252C40.092 155.775 39.966 156.265 39.714 156.722C39.4713 157.179 39.084 157.548 38.552 157.828C38.0293 158.108 37.3667 158.248 36.564 158.248H34.926V162H32.966V152.228H36.564C37.32 152.228 37.964 152.359 38.496 152.62C39.028 152.881 39.4247 153.241 39.686 153.698C39.9567 154.155 40.092 154.673 40.092 155.252ZM36.48 156.666C37.0213 156.666 37.4227 156.545 37.684 156.302C37.9453 156.05 38.076 155.7 38.076 155.252C38.076 154.3 37.544 153.824 36.48 153.824H34.926V156.666H36.48ZM43.4436 151.64V162H41.4836V151.64H43.4436ZM44.8761 158.094C44.8761 157.31 45.0301 156.615 45.3381 156.008C45.6554 155.401 46.0801 154.935 46.6121 154.608C47.1534 154.281 47.7554 154.118 48.4181 154.118C48.9967 154.118 49.5007 154.235 49.9301 154.468C50.3687 154.701 50.7187 154.995 50.9801 155.35V154.244H52.9541V162H50.9801V160.866C50.7281 161.23 50.3781 161.533 49.9301 161.776C49.4914 162.009 48.9827 162.126 48.4041 162.126C47.7507 162.126 47.1534 161.958 46.6121 161.622C46.0801 161.286 45.6554 160.815 45.3381 160.208C45.0301 159.592 44.8761 158.887 44.8761 158.094ZM50.9801 158.122C50.9801 157.646 50.8867 157.24 50.7001 156.904C50.5134 156.559 50.2614 156.297 49.9441 156.12C49.6267 155.933 49.2861 155.84 48.9221 155.84C48.5581 155.84 48.2221 155.929 47.9141 156.106C47.6061 156.283 47.3541 156.545 47.1581 156.89C46.9714 157.226 46.8781 157.627 46.8781 158.094C46.8781 158.561 46.9714 158.971 47.1581 159.326C47.3541 159.671 47.6061 159.937 47.9141 160.124C48.2314 160.311 48.5674 160.404 48.9221 160.404C49.2861 160.404 49.6267 160.315 49.9441 160.138C50.2614 159.951 50.5134 159.69 50.7001 159.354C50.8867 159.009 50.9801 158.598 50.9801 158.122ZM62.2883 154.244L57.4863 165.668H55.4003L57.0803 161.804L53.9723 154.244H56.1703L58.1723 159.662L60.2023 154.244H62.2883ZM75.0388 162H73.0788L68.6408 155.294V162H66.6808V152.214H68.6408L73.0788 158.934V152.214H75.0388V162ZM80.4198 162.126C79.6731 162.126 79.0011 161.963 78.4038 161.636C77.8064 161.3 77.3351 160.829 76.9898 160.222C76.6538 159.615 76.4858 158.915 76.4858 158.122C76.4858 157.329 76.6584 156.629 77.0038 156.022C77.3584 155.415 77.8391 154.949 78.4458 154.622C79.0524 154.286 79.7291 154.118 80.4758 154.118C81.2224 154.118 81.8991 154.286 82.5058 154.622C83.1124 154.949 83.5884 155.415 83.9338 156.022C84.2884 156.629 84.4658 157.329 84.4658 158.122C84.4658 158.915 84.2838 159.615 83.9198 160.222C83.5651 160.829 83.0798 161.3 82.4638 161.636C81.8571 161.963 81.1758 162.126 80.4198 162.126ZM80.4198 160.418C80.7744 160.418 81.1058 160.334 81.4138 160.166C81.7311 159.989 81.9831 159.727 82.1698 159.382C82.3564 159.037 82.4498 158.617 82.4498 158.122C82.4498 157.385 82.2538 156.82 81.8618 156.428C81.4791 156.027 81.0078 155.826 80.4478 155.826C79.8878 155.826 79.4164 156.027 79.0338 156.428C78.6604 156.82 78.4738 157.385 78.4738 158.122C78.4738 158.859 78.6558 159.429 79.0198 159.83C79.3931 160.222 79.8598 160.418 80.4198 160.418ZM96.6555 154.244L94.3875 162H92.2735L90.8595 156.582L89.4455 162H87.3175L85.0355 154.244H87.0235L88.3955 160.152L89.8795 154.244H91.9515L93.4075 160.138L94.7795 154.244H96.6555Z" fill="white"/>
</g>
<defs>
<radialGradient id="paint0_radial_14_84" cx="0" cy="0" r="1" gradientUnits="userSpaceOnUse" gradientTransform="translate(1.74364e-05 11) rotate(23.925) scale(466.044 421.507)">
<stop stop-color="#FA44DD"/>
<stop offset="1" stop-color="#FEB700"/>
</radialGradient>
<linearGradient id="paint1_linear_14_84" x1="304" y1="67.2221" x2="304" y2="207.845" gradientUnits="userSpaceOnUse">
<stop stop-color="white" stop-opacity="0.4"/>
<stop offset="1" stop-color="white" stop-opacity="0.15"/>
</linearGradient>
<clipPath id="clip0_14_84">
<rect width="426" height="200" rx="16" fill="white"/>
</clipPath>
<clipPath id="clip1_14_84">
<rect width="410" height="203" fill="white" transform="translate(99 24)"/>
</clipPath>
</defs>
</svg>
