<svg width="16" height="16" viewBox="0 0 16 16" fill="none" xmlns="http://www.w3.org/2000/svg">
<path d="M11.3333 11.995V15.995H14C15.1046 15.995 16 15.0996 16 13.995V7.91437C16.0002 7.56803 15.8656 7.23521 15.6247 6.98637L9.95934 0.861683C8.95972 -0.219879 7.27259 -0.286285 6.19103 0.71334C6.13966 0.76084 6.09016 0.810308 6.04269 0.861683L0.387344 6.98437C0.139156 7.23425 -9.37027e-05 7.57218 4.73072e-08 7.92437V13.995C4.73072e-08 15.0996 0.895437 15.995 2 15.995H4.66666V11.995C4.67912 10.1772 6.14684 8.69265 7.91894 8.6499C9.75031 8.60571 11.3194 10.1155 11.3333 11.995Z" fill="white"/>
</svg>
